<svg width="9" height="16" viewBox="0 0 9 16" fill="none" xmlns="http://www.w3.org/2000/svg">
<path d="M8.03314 0.00321306L6.03403 0C3.78811 0 2.33669 1.49166 2.33669 3.80041V5.55265H0.326684C0.152995 5.55265 0.0123444 5.6937 0.0123444 5.86769V8.40649C0.0123444 8.58047 0.153156 8.72136 0.326684 8.72136H2.33669V15.1276C2.33669 15.3015 2.47734 15.4424 2.65103 15.4424H5.27352C5.44721 15.4424 5.58786 15.3014 5.58786 15.1276V8.72136H7.93803C8.11172 8.72136 8.25237 8.58047 8.25237 8.40649L8.25333 5.86769C8.25333 5.78415 8.22014 5.70414 8.16128 5.64502C8.10242 5.5859 8.02223 5.55265 7.93884 5.55265H5.58786V4.06725C5.58786 3.35331 5.7577 2.99088 6.68613 2.99088L8.03282 2.99039C8.20634 2.99039 8.347 2.84934 8.347 2.67551V0.318093C8.347 0.144427 8.2065 0.00353436 8.03314 0.00321306Z" fill="white"/>
</svg>
